<svg width="3294" height="359" viewBox="0 0 3294 359" fill="none" xmlns="http://www.w3.org/2000/svg">
<path d="M0.603027 136.685L13.1307 114.762L25.6583 136.685V218.24L13.1307 240.038L0.603027 218.24V136.685Z" fill="black"/>
<path d="M225.6 137.187L238.127 115.264L250.655 137.187V218.742L238.127 240.54L225.6 218.742V137.187Z" fill="black"/>
<path d="M28.1078 135.897L15.3854 114.086L40.6354 114.199L111.264 154.976L123.878 176.725L98.7365 176.675L28.1078 135.897Z" fill="black"/>
<path d="M138.407 153.974L125.88 175.897L113.352 153.974L113.352 72.4191L125.88 50.621L138.407 72.4191L138.407 153.974Z" fill="black"/>
<path d="M28.1078 265.433L15.3854 243.622L40.6354 243.735L111.264 284.512L123.878 306.261L98.7365 306.211L28.1078 265.433Z" fill="black"/>
<path d="M140.857 71.0037L128.134 49.1927L153.384 49.3052L224.013 90.0827L236.627 111.831L211.486 111.781L140.857 71.0037Z" fill="black"/>
<path d="M2029.43 138.224L2041.96 116.301L2054.49 138.224V219.779L2041.96 241.577L2029.43 219.779V138.224Z" fill="black"/>
<path d="M2254.43 138.726L2266.95 116.803L2279.48 138.726V220.281L2266.95 242.079L2254.43 220.281V138.726Z" fill="black"/>
<path d="M2056.94 137.436L2044.21 115.625L2069.46 115.738L2140.09 156.515L2152.71 178.264L2127.56 178.214L2056.94 137.436Z" fill="black"/>
<path d="M2167.23 155.513L2154.71 177.437L2142.18 155.513L2142.18 73.9581L2154.71 52.16L2167.23 73.9581L2167.23 155.513Z" fill="black"/>
<path d="M2056.94 266.972L2044.21 245.161L2069.46 245.274L2140.09 286.051L2152.71 307.8L2127.56 307.75L2056.94 266.972Z" fill="black"/>
<path d="M2169.68 72.5427L2156.96 50.7318L2182.21 50.8442L2252.84 91.6217L2265.45 113.37L2240.31 113.32L2169.68 72.5427Z" fill="black"/>
<path d="M1268.14 138.478L1280.67 116.555L1293.2 138.478V220.033L1280.67 241.831L1268.14 220.033V138.478Z" fill="black"/>
<path d="M1493.14 138.98L1505.66 117.057L1518.19 138.98V220.535L1505.66 242.333L1493.14 220.535V138.98Z" fill="black"/>
<path d="M1366.17 180.635L1391.42 180.522L1378.69 202.333L1308.06 243.111L1282.92 243.16L1295.54 221.412L1366.17 180.635Z" fill="black"/>
<path d="M1420.67 178.505L1395.42 178.618L1408.14 156.807L1478.77 116.029L1503.91 115.979L1491.3 137.728L1420.67 178.505Z" fill="black"/>
<path d="M1295.64 267.226L1282.92 245.415L1308.17 245.528L1378.8 286.305L1391.42 308.054L1366.27 308.004L1295.64 267.226Z" fill="black"/>
<path d="M1408.39 72.7967L1395.67 50.9857L1420.92 51.0981L1491.55 91.8756L1504.16 113.624L1479.02 113.574L1408.39 72.7967Z" fill="black"/>
<path d="M2284.6 139.754L2297.13 117.831L2309.65 139.754V221.309L2297.13 243.108L2284.6 221.309V139.754Z" fill="black"/>
<path d="M2509.6 140.256L2522.12 118.333L2534.65 140.256V221.811L2522.12 243.61L2509.6 221.811V140.256Z" fill="black"/>
<path d="M2312.1 138.967L2299.38 117.156L2324.63 117.268L2395.26 158.046L2407.87 179.794L2382.73 179.744L2312.1 138.967Z" fill="black"/>
<path d="M2437.13 179.781L2411.88 179.894L2424.6 158.083L2495.23 117.305L2520.37 117.256L2507.76 139.004L2437.13 179.781Z" fill="black"/>
<path d="M2324.13 114.788L2298.88 114.901L2311.6 93.0898L2382.23 52.3123L2407.37 52.2625L2394.76 74.0108L2324.13 114.788Z" fill="black"/>
<path d="M2424.85 74.073L2412.13 52.2621L2437.38 52.3745L2508.01 93.152L2520.62 114.9L2495.48 114.851L2424.85 74.073Z" fill="black"/>
<path d="M508.596 136.685L521.124 114.762L533.651 136.685V218.24L521.124 240.038L508.596 218.24V136.685Z" fill="black"/>
<path d="M733.593 137.187L746.12 115.264L758.648 137.187V218.742L746.12 240.54L733.593 218.742V137.187Z" fill="black"/>
<path d="M621.345 201.579L633.872 179.655L646.4 201.579V283.134L633.872 304.932L621.345 283.134V201.579Z" fill="black"/>
<path d="M646.4 153.974L633.873 175.897L621.345 153.974L621.345 72.4191L633.873 50.621L646.4 72.4191L646.4 153.974Z" fill="black"/>
<path d="M548.128 111.719L522.878 111.831L535.6 90.0204L606.229 49.2429L631.37 49.1932L618.757 70.9415L548.128 111.719Z" fill="black"/>
<path d="M648.85 71.0037L636.128 49.1927L661.378 49.3052L732.006 90.0827L744.62 111.831L719.479 111.781L648.85 71.0037Z" fill="black"/>
<path d="M2539.99 141.854L2552.52 119.931L2565.05 141.854V223.409L2552.52 245.207L2539.99 223.409V141.854Z" fill="black"/>
<path d="M2764.99 142.356L2777.52 120.433L2790.05 142.356V223.911L2777.52 245.709L2764.99 223.911V142.356Z" fill="black"/>
<path d="M2652.74 206.748L2665.27 184.824L2677.8 206.748V288.303L2665.27 310.101L2652.74 288.303V206.748Z" fill="black"/>
<path d="M2677.8 159.143L2665.27 181.066L2652.74 159.143L2652.74 77.588L2665.27 55.7899L2677.8 77.588L2677.8 159.143Z" fill="black"/>
<path d="M2579.53 116.888L2554.28 117L2567 95.1894L2637.63 54.4119L2662.77 54.3621L2650.15 76.1104L2579.53 116.888Z" fill="black"/>
<path d="M2680.25 76.1726L2667.53 54.3617L2692.78 54.4741L2763.4 95.2516L2776.02 117L2750.88 116.95L2680.25 76.1726Z" fill="black"/>
<path d="M2903.24 204.648L2915.77 182.725L2928.3 204.648V286.203L2915.77 308.001L2903.24 286.203V204.648Z" fill="black"/>
<path d="M2928.3 157.043L2915.77 178.967L2903.24 157.043L2903.24 75.4884L2915.77 53.6903L2928.3 75.4884L2928.3 157.043Z" fill="black"/>
<path d="M2830.02 114.788L2804.77 114.901L2817.5 93.0898L2888.12 52.3123L2913.27 52.2625L2900.65 74.0108L2830.02 114.788Z" fill="black"/>
<path d="M2942.77 309.218L2917.52 309.33L2930.25 287.519L3000.87 246.742L3026.02 246.692L3013.4 268.44L2942.77 309.218Z" fill="black"/>
<path d="M2818 268.503L2805.27 246.692L2830.52 246.804L2901.15 287.582L2913.77 309.33L2888.63 309.28L2818 268.503Z" fill="black"/>
<path d="M2930.75 74.073L2918.02 52.2621L2943.27 52.3745L3013.9 93.152L3026.52 114.9L3001.38 114.851L2930.75 74.073Z" fill="black"/>
<path d="M255.299 136.685L267.827 114.762L280.355 136.685V218.24L267.827 240.038L255.299 218.24V136.685Z" fill="black"/>
<path d="M353.324 178.842L378.574 178.729L365.852 200.54L295.223 241.318L270.082 241.367L282.696 219.619L353.324 178.842Z" fill="black"/>
<path d="M282.804 135.897L270.082 114.086L295.332 114.199L365.96 154.976L378.574 176.725L353.433 176.675L282.804 135.897Z" fill="black"/>
<path d="M294.831 111.719L269.581 111.831L282.303 90.0204L352.932 49.2429L378.074 49.1932L365.46 70.9415L294.831 111.719Z" fill="black"/>
<path d="M407.579 306.149L382.329 306.261L395.052 284.45L465.681 243.673L490.822 243.623L478.208 265.371L407.579 306.149Z" fill="black"/>
<path d="M282.804 265.433L270.082 243.622L295.332 243.735L365.96 284.512L378.574 306.261L353.433 306.211L282.804 265.433Z" fill="black"/>
<path d="M395.553 71.0037L382.831 49.1927L408.081 49.3052L478.709 90.0827L491.323 111.831L466.182 111.781L395.553 71.0037Z" fill="black"/>
<path d="M1546.77 265.412L1534.46 243.365L1559.71 243.954L1629.56 286.054L1641.76 308.037L1616.62 307.513L1546.77 265.412Z" fill="black"/>
<path d="M1560.3 241.447L1535.05 241.083L1548.18 219.516L1619.56 180.076L1644.7 180.5L1631.68 202.007L1560.3 241.447Z" fill="black"/>
<path d="M1632.72 156.313L1645.03 178.36L1619.78 177.772L1549.93 135.671L1537.73 113.689L1562.87 114.212L1632.72 156.313Z" fill="black"/>
<path d="M1659.79 155.441L1646.85 177.124L1634.74 154.969L1636.28 73.4283L1649.21 51.8701L1661.33 73.9003L1659.79 155.441Z" fill="black"/>
<path d="M1545.8 218.665L1532.86 240.349L1520.75 218.193L1522.28 136.653L1535.22 115.095L1547.33 137.125L1545.8 218.665Z" fill="black"/>
<path d="M1770.52 222.472L1757.58 244.156L1745.47 222L1747.01 140.46L1759.94 118.901L1772.06 140.932L1770.52 222.472Z" fill="black"/>
<path d="M1732.98 117.213L1758.22 117.577L1745.09 139.144L1673.71 178.584L1648.57 178.16L1661.59 156.653L1732.98 117.213Z" fill="black"/>
<path d="M1562.92 111.383L1537.67 111.02L1550.81 89.4526L1622.19 50.013L1647.33 50.4369L1634.31 71.9437L1562.92 111.383Z" fill="black"/>
<path d="M761.194 136.685L773.721 114.762L786.249 136.685V218.24L773.721 240.038L761.194 218.24V136.685Z" fill="black"/>
<path d="M986.19 137.187L998.718 115.264L1011.25 137.187V218.742L998.718 240.54L986.19 218.742V137.187Z" fill="black"/>
<path d="M788.699 135.897L775.976 114.086L801.226 114.199L871.855 154.976L884.469 176.725L859.327 176.675L788.699 135.897Z" fill="black"/>
<path d="M913.722 176.712L888.472 176.825L901.194 155.014L971.823 114.236L996.965 114.186L984.351 135.935L913.722 176.712Z" fill="black"/>
<path d="M800.725 111.719L775.475 111.831L788.198 90.0204L858.827 49.2429L883.968 49.1932L871.354 70.9415L800.725 111.719Z" fill="black"/>
<path d="M901.448 71.0037L888.725 49.1927L913.975 49.3052L984.604 90.0827L997.218 111.831L972.076 111.781L901.448 71.0037Z" fill="black"/>
<path d="M1774.73 138.478L1787.26 116.555L1799.79 138.478V220.033L1787.26 241.831L1774.73 220.033V138.478Z" fill="black"/>
<path d="M1999.73 138.98L2012.26 117.057L2024.79 138.98V220.535L2012.26 242.333L1999.73 220.535V138.98Z" fill="black"/>
<path d="M1887.48 203.372L1900.01 181.448L1912.54 203.372V284.927L1900.01 306.725L1887.48 284.927V203.372Z" fill="black"/>
<path d="M1872.76 180.635L1898.01 180.522L1885.29 202.333L1814.66 243.111L1789.52 243.16L1802.13 221.412L1872.76 180.635Z" fill="black"/>
<path d="M1802.24 137.69L1789.52 115.879L1814.77 115.992L1885.4 156.769L1898.01 178.518L1872.87 178.468L1802.24 137.69Z" fill="black"/>
<path d="M1912.54 155.767L1900.01 177.69L1887.48 155.767L1887.48 74.212L1900.01 52.4139L1912.54 74.212L1912.54 155.767Z" fill="black"/>
<path d="M1927.26 178.505L1902.01 178.618L1914.73 156.807L1985.36 116.029L2010.5 115.979L1997.89 137.728L1927.26 178.505Z" fill="black"/>
<path d="M1814.27 113.512L1789.02 113.624L1801.74 91.8134L1872.37 51.0359L1897.51 50.9861L1884.89 72.7344L1814.27 113.512Z" fill="black"/>
<path d="M1927.01 307.942L1901.76 308.054L1914.49 286.243L1985.12 245.466L2010.26 245.416L1997.64 267.164L1927.01 307.942Z" fill="black"/>
<path d="M1997.78 221.449L2010.5 243.26L1985.25 243.148L1914.63 202.37L1902.01 180.622L1927.15 180.672L1997.78 221.449Z" fill="black"/>
<path d="M1802.24 267.226L1789.52 245.415L1814.77 245.528L1885.4 286.305L1898.01 308.054L1872.87 308.004L1802.24 267.226Z" fill="black"/>
<path d="M1914.99 72.7967L1902.27 50.9857L1927.52 51.0981L1998.14 91.8756L2010.76 113.624L1985.62 113.574L1914.99 72.7967Z" fill="black"/>
<path d="M3043.09 139.754L3055.62 117.831L3068.15 139.754V221.309L3055.62 243.108L3043.09 221.309V139.754Z" fill="black"/>
<path d="M3155.84 204.648L3168.37 182.725L3180.89 204.648V286.203L3168.37 308.001L3155.84 286.203V204.648Z" fill="black"/>
<path d="M3141.11 181.911L3166.36 181.798L3153.64 203.609L3083.01 244.387L3057.87 244.437L3070.49 222.688L3141.11 181.911Z" fill="black"/>
<path d="M3070.59 138.967L3057.87 117.156L3083.12 117.268L3153.75 158.046L3166.36 179.794L3141.22 179.744L3070.59 138.967Z" fill="black"/>
<path d="M3180.89 157.043L3168.37 178.967L3155.84 157.043L3155.84 75.4884L3168.37 53.6903L3180.89 75.4884L3180.89 157.043Z" fill="black"/>
<path d="M3082.62 114.788L3057.37 114.901L3070.09 93.0898L3140.72 52.3123L3165.86 52.2625L3153.25 74.0108L3082.62 114.788Z" fill="black"/>
<path d="M3195.37 309.218L3170.12 309.33L3182.84 287.519L3253.47 246.742L3278.61 246.692L3266 268.44L3195.37 309.218Z" fill="black"/>
<path d="M3070.59 268.503L3057.87 246.692L3083.12 246.804L3153.75 287.582L3166.36 309.33L3141.22 309.28L3070.59 268.503Z" fill="black"/>
<path d="M3183.34 74.073L3170.62 52.2621L3195.87 52.3745L3266.5 93.152L3279.11 114.9L3253.97 114.851L3183.34 74.073Z" fill="black"/>
<path d="M1014.84 138.478L1027.37 116.555L1039.9 138.478V220.033L1027.37 241.831L1014.84 220.033V138.478Z" fill="black"/>
<path d="M1127.59 203.372L1140.12 181.448L1152.65 203.372V284.927L1140.12 306.725L1127.59 284.927V203.372Z" fill="black"/>
<path d="M1112.87 180.635L1138.12 180.522L1125.4 202.333L1054.77 243.111L1029.63 243.16L1042.24 221.412L1112.87 180.635Z" fill="black"/>
<path d="M1042.35 137.69L1029.63 115.879L1054.88 115.992L1125.5 156.769L1138.12 178.518L1112.98 178.468L1042.35 137.69Z" fill="black"/>
<path d="M1152.65 155.767L1140.12 177.69L1127.59 155.767L1127.59 74.212L1140.12 52.4139L1152.65 74.212L1152.65 155.767Z" fill="black"/>
<path d="M1054.37 113.512L1029.12 113.624L1041.85 91.8134L1112.48 51.0359L1137.62 50.9861L1125 72.7344L1054.37 113.512Z" fill="black"/>
<path d="M1167.12 307.942L1141.87 308.054L1154.6 286.243L1225.22 245.466L1250.37 245.416L1237.75 267.164L1167.12 307.942Z" fill="black"/>
<path d="M1042.35 267.226L1029.63 245.415L1054.88 245.528L1125.5 286.305L1138.12 308.054L1112.98 308.004L1042.35 267.226Z" fill="black"/>
<path d="M1155.1 72.7967L1142.37 50.9857L1167.62 51.0981L1238.25 91.8756L1250.87 113.624L1225.73 113.574L1155.1 72.7967Z" fill="black"/>
</svg>
